<?xml version="1.0" encoding="utf-8"?>
<!-- Generator: Adobe Illustrator 22.0.1, SVG Export Plug-In . SVG Version: 6.00 Build 0)  -->
<svg version="1.1" id="Layer_1" xmlns="http://www.w3.org/2000/svg" xmlns:xlink="http://www.w3.org/1999/xlink" x="0px" y="0px"
	 viewBox="0 0 4 3.6" style="enable-background:new 0 0 4 3.6;" xml:space="preserve">
<style type="text/css">
	.st0{fill:#606060;}
</style>
<path class="st0" d="M2.1,0l1.5,0.7c0,0,0,0,0.1,0.1h0L4,1.5C4,1.6,4,1.7,4,1.7c0,0,0,0,0,0L3.6,1.9v0.8c0,0.1,0,0.1-0.1,0.1
	L2.1,3.6c0,0-0.1,0-0.1,0L0.5,2.8c0,0-0.1-0.1-0.1-0.1h0V1.9L0.1,1.7C0,1.7,0,1.6,0,1.5l0,0h0l0.4-0.7c0,0,0,0,0.1-0.1L2,0
	C2,0,2,0,2.1,0L2.1,0z M1.9,3.2L1.9,3.2V1.9L1.7,2.3c0,0-0.1,0.1-0.1,0h0L0.7,1.9v0.7L1.9,3.2L1.9,3.2z M1.9,1.5L1.9,1.5V0.3
	L0.8,0.9L1.9,1.5L1.9,1.5z M2.1,0.3L2.1,0.3v1.1l1.1-0.6L2.1,0.3L2.1,0.3z M2.1,1.9L2.1,1.9v1.3l1.2-0.6V1.9L2.4,2.4h0
	c0,0-0.1,0-0.1,0L2.1,1.9L2.1,1.9z M3.4,1L3.4,1L2.1,1.6l0.3,0.5l1.3-0.6L3.4,1L3.4,1z M0.6,1.7L0.6,1.7l1,0.5l0.3-0.5L0.6,1
	L0.3,1.5L0.6,1.7C0.6,1.7,0.6,1.7,0.6,1.7L0.6,1.7z"/>
</svg>
