<?xml version="1.0" encoding="UTF-8" standalone="no"?>
<!-- Created with Inkscape (http://www.inkscape.org/) -->

<svg
   xmlns:dc="http://purl.org/dc/elements/1.1/"
   xmlns:cc="http://creativecommons.org/ns#"
   xmlns:rdf="http://www.w3.org/1999/02/22-rdf-syntax-ns#"
   xmlns:svg="http://www.w3.org/2000/svg"
   xmlns="http://www.w3.org/2000/svg"
   xmlns:sodipodi="http://sodipodi.sourceforge.net/DTD/sodipodi-0.dtd"
   xmlns:inkscape="http://www.inkscape.org/namespaces/inkscape"
   width="12.347212mm"
   height="10.737247mm"
   viewBox="0 0 12.347212 10.737247"
   version="1.1"
   id="svg18810"
   inkscape:version="0.92.2 (5c3e80d, 2017-08-06)"
   sodipodi:docname="Storefront-icon.svg">
  <defs
     id="defs18804" />
  <sodipodi:namedview
     id="base"
     pagecolor="#ffffff"
     bordercolor="#666666"
     borderopacity="1.0"
     inkscape:pageopacity="0.0"
     inkscape:pageshadow="2"
     inkscape:zoom="5.6"
     inkscape:cx="-45.967518"
     inkscape:cy="43.383804"
     inkscape:document-units="mm"
     inkscape:current-layer="layer1"
     showgrid="false"
     fit-margin-top="0"
     fit-margin-left="0"
     fit-margin-right="0"
     fit-margin-bottom="0"
     inkscape:window-width="3840"
     inkscape:window-height="2275"
     inkscape:window-x="-13"
     inkscape:window-y="-13"
     inkscape:window-maximized="1" />
  <metadata
     id="metadata18807">
    <rdf:RDF>
      <cc:Work
         rdf:about="">
        <dc:format>image/svg+xml</dc:format>
        <dc:type
           rdf:resource="http://purl.org/dc/dcmitype/StillImage" />
        <dc:title></dc:title>
      </cc:Work>
    </rdf:RDF>
  </metadata>
  <g
     inkscape:label="Layer 1"
     inkscape:groupmode="layer"
     id="layer1"
     transform="translate(-117.99557,-149.57472)">
    <g
       id="g11120"
       transform="matrix(0.35277777,0,0,-0.35277777,128.13791,155.70504)">
      <path
         d="m 0,0 v -4.352 h -6.432 v 4.159 c -0.17,-0.012 -0.345,-0.039 -0.513,-0.039 -0.346,0 -0.694,0.027 -1.055,0.08 -0.033,0.004 -0.08,0.009 -0.105,0.013 -0.323,0.051 -0.651,0.127 -0.995,0.231 -0.021,0.008 -0.072,0.021 -0.093,0.029 -0.327,0.106 -0.649,0.236 -0.967,0.393 -0.008,0.004 -0.022,0.011 -0.037,0.019 -0.272,0.137 -0.532,0.291 -0.776,0.459 -0.066,0.041 -0.129,0.09 -0.191,0.141 V -8.881 h -10.99 v 8.986 c -0.694,-0.216 -1.43,-0.334 -2.174,-0.335 v -10.653 h -2.178 v -2.176 H 4.373 v 2.145 H 2.174 V -0.213 C 2.035,-0.221 1.896,-0.232 1.754,-0.232 1.156,-0.232 0.57,-0.141 0,0"
         style="fill:#606062;fill-opacity:1;fill-rule:nonzero;stroke:none"
         id="path11122"
         inkscape:connector-curvature="0" />
    </g>
    <g
       id="g11124"
       transform="matrix(0.35277777,0,0,-0.35277777,130.31175,153.45196)">
      <path
         d="m 0,0 h -34.912 c 0.031,-0.264 0.057,-0.551 0.057,-0.869 0,-1.975 1.947,-3.574 4.349,-3.574 1.104,0 2.108,0.339 2.875,0.896 l 0.002,-0.004 c 0.348,0.317 0.879,0.518 1.473,0.518 0.595,0 1.129,-0.203 1.478,-0.52 l -0.002,0.004 c 0,0 0.002,0 0.002,-0.002 0.188,-0.135 0.389,-0.256 0.604,-0.365 0.01,-0.004 0.017,-0.008 0.025,-0.012 0.211,-0.103 0.43,-0.195 0.66,-0.267 l 0.053,-0.018 c 0.229,-0.07 0.463,-0.127 0.705,-0.166 l 0.059,-0.006 c 0.25,-0.037 0.504,-0.058 0.765,-0.058 0.262,0 0.518,0.021 0.766,0.058 0.02,0.002 0.041,0.004 0.061,0.006 0.242,0.039 0.478,0.096 0.705,0.166 l 0.052,0.018 c 0.231,0.074 0.452,0.164 0.661,0.267 0.007,0.004 0.017,0.008 0.025,0.012 0.215,0.109 0.418,0.232 0.605,0.369 l 0.002,-0.004 c 0.348,0.317 0.879,0.518 1.473,0.518 0.596,0 1.129,-0.203 1.478,-0.52 l -0.001,0.004 c 0,0 0.001,0 0.001,-0.002 0.188,-0.135 0.389,-0.256 0.604,-0.365 0.01,-0.004 0.018,-0.008 0.025,-0.012 0.211,-0.103 0.43,-0.195 0.661,-0.267 l 0.052,-0.018 c 0.229,-0.07 0.463,-0.127 0.705,-0.166 l 0.059,-0.006 c 0.25,-0.037 0.504,-0.058 0.766,-0.058 0.261,0 0.517,0.021 0.765,0.058 0.02,0.002 0.041,0.004 0.061,0.006 0.242,0.039 0.478,0.096 0.705,0.166 l 0.053,0.018 c 0.23,0.074 0.451,0.164 0.66,0.267 0.008,0.004 0.017,0.008 0.025,0.012 0.215,0.109 0.418,0.232 0.606,0.369 l 0.002,-0.004 c 0.347,0.317 0.878,0.518 1.472,0.518 0.596,0 1.129,-0.203 1.479,-0.52 l -0.002,0.004 c 0.767,-0.555 1.771,-0.894 2.873,-0.894 2.402,0 4.349,1.599 4.349,3.574 0,0.318 0.026,0.605 0.059,0.869"
         style="fill:#606062;fill-opacity:1;fill-rule:nonzero;stroke:none"
         id="path11126"
         inkscape:connector-curvature="0" />
    </g>
    <g
       id="g11128"
       transform="matrix(0.35277777,0,0,-0.35277777,118.00791,152.69539)">
      <path
         d="m 0,0 h 17.461 0.041 17.463 L 33.998,1.988 30.664,8.846 H 17.502 17.461 4.301 l -3.33,-6.85 z"
         style="fill:#606062;fill-opacity:1;fill-rule:nonzero;stroke:none"
         id="path11130"
         inkscape:connector-curvature="0" />
    </g>
  </g>
</svg>
